<svg version="1.1" id="Layer_1" xmlns="http://www.w3.org/2000/svg" xmlns:xlink="http://www.w3.org/1999/xlink" x="0px" y="0px" width="100%" viewBox="0 0 1024 1024" enable-background="new 0 0 1024 1024" xml:space="preserve"><path fill="none" opacity="1" stroke="none" d=" M655,1025 C436.7,1025 218.8,1025 1,1025 C1,683.7 1,342.3 1,1 C342.3,1 683.7,1 1025,1 C1025,342.3 1025,683.7 1025,1025 C901.8,1025 778.7,1025 655,1025 M367.3,255.8 C365,257.7 362.8,259.7 360.9,261.3 C379.8,280.6 398.1,299.3 416.6,318.3 C383,351.6 349.2,385 315.1,418.7 C348,450.4 380.7,481.9 412.9,512.9 C396.1,530.5 379.4,548 363.5,564.6 C368.7,570.4 374.3,576.6 380.1,583.1 C398.2,565.6 415.9,548.5 433.6,531.3 C461,558 488.3,584.7 516,611.7 C546.6,581.7 577.2,551.9 608.1,521.8 C628.3,541.7 648.3,561.4 668.8,581.5 C675,574.7 680.8,568.3 686.8,561.8 C667.4,542.7 647.5,523.2 628.4,504.5 C656.7,475.5 684.7,446.7 712.1,418.6 C679,384.9 645.6,350.8 612.5,316.9 C630.3,298.7 648.3,280.2 665.9,262.2 C660.3,256.1 654.6,249.9 648.4,243.3 C629.8,262 611.4,280.3 592.9,298.9 C566.9,273.2 540.7,247.4 513.6,220.6 C487.4,247.4 461.6,273.7 435.2,300.6 C416.4,281.4 398.1,262.7 378.7,242.8 C374.8,247.3 371.3,251.3 367.3,255.8 M730.5,641.1 C712.4,643.9 701.5,658.6 704.8,676 C707.9,692.6 724.2,702.4 742.2,698.5 C756,695.6 765.9,684.3 766.2,671 C766.6,652.3 751.8,639.6 730.5,641.1 M651.4,643.8 C634,652.7 629.5,673.1 640.9,688.6 C649.9,700.7 672.6,703.9 688.4,691.8 C689,691.4 689.6,690.5 689.6,689.8 C689.7,682.1 689.7,674.4 689.7,666.9 C681,666.9 672.9,666.9 664.9,666.9 C664.9,670.1 664.9,672.9 664.9,676.2 C669.4,676.2 673.6,676.2 677.8,676.2 C678.9,686.2 678.5,686.7 669.2,688.5 C668.7,688.6 668.2,688.7 667.7,688.8 C657.6,690.2 648.3,682.7 647.1,672.3 C646,661.7 653,653 663.1,651.9 C669.6,651.2 675,653.6 680.1,657.6 C682.8,654.5 685.2,651.7 687.9,648.6 C676.4,640.2 664.7,638.6 651.4,643.8 M554.3,663.1 C551.5,657.1 548.5,651.1 546,645 C544.8,642.3 543.2,641.6 540.6,642.1 C537.6,642.7 533.9,640.2 531.8,645 C526.9,656.5 521.5,667.7 516.4,679 C513.5,685.2 510.8,691.4 507.9,697.9 C519.7,698.6 519.7,698.6 524.2,688.7 C524.8,687.5 525.4,686.4 526,685.2 C534.6,685.2 543.1,685.2 551.5,685.2 C558.7,699.5 558.7,699.5 570.3,697.6 C565.1,686.2 559.9,675 554.3,663.1 M456.8,648.6 C454,645.3 451.8,640.7 446.1,643.4 C446.1,661.5 446.1,679.7 446.1,698.2 C448.3,698.1 450.2,698 452.8,697.9 C452.8,683.6 452.8,669.8 452.8,654.6 C455.2,657.4 456.7,658.9 458,660.6 C467,671.9 476.1,683.2 484.8,694.8 C487.1,697.7 489.3,698.8 492.9,697.8 C492.9,679.6 492.9,661.3 492.9,643.2 C490.5,643.2 488.4,643.2 486.1,643.2 C486.1,657.3 486.1,671 486.1,685.4 C481,679 476.2,673.1 471.5,667.2 C466.8,661.2 462,655.2 456.8,648.6 M259.7,668 C260.3,672.6 260.2,677.4 261.7,681.6 C266.4,694.9 280.7,701.9 294.9,698.4 C309.4,694.9 317.8,681.8 316,665.8 C314.5,653 301.7,642 288.2,641.9 C273.1,641.8 261.7,651.9 259.7,668 M395.8,659.5 C395.8,656.1 395.8,652.7 395.8,648.8 C407.1,648.8 417.8,648.8 428.4,648.8 C428.4,646.5 428.4,644.7 428.4,643 C415,643 402,643 388.7,643 C388.7,661.5 388.7,679.6 388.7,698 C402.1,698 415.4,698 428.8,698 C428.8,696 428.8,694.1 428.8,691.9 C417.7,691.9 407,691.9 395.9,691.9 C395.9,685.6 395.9,679.7 395.9,673.4 C405.6,673.4 415.2,673.4 424.8,673.4 C424.8,671.2 424.8,669.5 424.8,667.3 C415,667.3 405.6,667.3 395.8,667.3 C395.8,664.8 395.8,662.6 395.8,659.5 M596.2,670.7 C596.2,661.2 596.2,651.8 596.2,642.5 C592,642.5 588.4,642.5 584.5,642.5 C584.5,661.1 584.5,679.3 584.5,698.1 C591.3,698.1 597.9,698.1 604.5,698.1 C611.3,698.1 618.1,698.1 625,698.1 C625,694.4 625,691.2 625,687.4 C615.3,687.4 605.9,687.4 596.2,687.4 C596.2,681.8 596.2,676.7 596.2,670.7 M331.9,696.3 C333.9,697.1 335.9,697.9 338.8,699 C338.8,691.4 338.8,685.4 338.8,679.4 C345.9,679 352.5,679 359.1,678.1 C367.9,676.9 373.6,670.3 374.1,662.1 C374.5,653 369.5,645.4 360.4,644 C351,642.5 341.4,642.9 331.9,642.4 C331.9,660.8 331.9,678.1 331.9,696.3 z"/><path fill="#000" opacity="1" stroke="none" d=" M367.5,255.5 C371.3,251.3 374.8,247.3 378.7,242.8 C398.1,262.7 416.4,281.4 435.2,300.6 C461.6,273.7 487.4,247.4 513.6,220.6 C540.7,247.4 566.9,273.2 592.9,298.9 C611.4,280.3 629.8,262 648.4,243.3 C654.6,249.9 660.3,256.1 665.9,262.2 C648.3,280.2 630.3,298.7 612.5,316.9 C645.6,350.8 679,384.9 712.1,418.6 C684.7,446.7 656.7,475.5 628.4,504.5 C647.5,523.2 667.4,542.7 686.8,561.8 C680.8,568.3 675,574.7 668.8,581.5 C648.3,561.4 628.3,541.7 608.1,521.8 C577.2,551.9 546.6,581.7 516,611.7 C488.3,584.7 461,558 433.6,531.3 C415.9,548.5 398.2,565.6 380.1,583.1 C374.3,576.6 368.7,570.4 363.5,564.6 C379.4,548 396.1,530.5 412.9,512.9 C380.7,481.9 348,450.4 315.1,418.7 C349.2,385 383,351.6 416.6,318.3 C398.1,299.3 379.8,280.6 360.9,261.3 C362.8,259.7 365,257.7 367.5,255.5 M540.5,406 C552,417.1 563.4,428.1 575,439.2 C588.1,426.5 601.7,413.3 615.9,399.5 C621.9,406.1 627.8,412.6 633.8,419.2 C620.3,431.7 606.4,444.8 592.9,457.3 C600,464.3 606.9,471.2 613.8,478.1 C633.5,458.1 653.4,437.7 673.2,417.5 C620.7,365.5 567.7,313.2 514.8,260.8 C494.6,280.6 474.6,300.2 454.3,320 C461.7,327 468.8,333.8 477.5,342.1 C489.4,329.1 501.6,315.8 514.3,301.9 C521,308.7 526.7,314.6 531.9,319.9 C519.2,333.3 506.8,346.5 494.7,359.4 C509.5,374.4 524.7,390 540.5,406 M575.3,514.8 C581.4,508.6 587.6,502.3 593.4,496.4 C586.7,489.5 580.1,482.5 573.2,475.3 C557.6,490.1 542.3,504.7 526.9,519.3 C520.9,513.3 515.2,507.5 509.4,501.6 C524.7,487 540,472.3 555.6,457.4 C528.5,430.5 501.6,403.8 474.5,377 C461.3,389.6 448,402.3 434.6,415.2 C455,435.2 475.1,454.9 494.9,474.3 C482.1,487.6 469.4,500.8 456.5,514.1 C476.3,533.2 496.5,552.7 516.8,572.4 C536.3,553.1 555.6,534.2 575.3,514.8 M413.2,474.3 C420.1,481 427,487.7 434.6,495.1 C441.3,487.6 447.8,480.3 453.9,473.5 C435.5,454.7 416.3,435.1 397.1,415.5 C416.9,396.5 436.7,377.7 456.9,358.4 C449.8,351.8 442.7,345.3 435.6,338.7 C409,364.8 381.8,391.4 354.7,418 C374.3,436.9 393.4,455.4 413.2,474.3 z"/><path fill="#000" opacity="1" stroke="none" d=" M730.9,641.1 C751.8,639.6 766.6,652.3 766.2,671 C765.9,684.3 756,695.6 742.2,698.5 C724.2,702.4 707.9,692.6 704.8,676 C701.5,658.6 712.4,643.9 730.9,641.1 M744.9,654.4 C735.4,649.8 726.8,650.9 721.3,657.5 C716.2,663.6 715.4,673.9 719.7,680.3 C723.9,686.5 730,689.5 737.3,688.6 C746.2,687.5 751.2,682.8 753,674.8 C754.8,666.6 752.7,659.8 744.9,654.4 z"/><path fill="#000" opacity="1" stroke="none" d=" M651.7,643.6 C664.7,638.6 676.4,640.2 687.9,648.6 C685.2,651.7 682.8,654.5 680.1,657.6 C675,653.6 669.6,651.2 663.1,651.9 C653,653 646,661.7 647.1,672.3 C648.3,682.7 657.6,690.2 667.7,688.8 C668.2,688.7 668.7,688.6 669.2,688.5 C678.5,686.7 678.9,686.2 677.8,676.2 C673.6,676.2 669.4,676.2 664.9,676.2 C664.9,672.9 664.9,670.1 664.9,666.9 C672.9,666.9 681,666.9 689.7,666.9 C689.7,674.4 689.7,682.1 689.6,689.8 C689.6,690.5 689,691.4 688.4,691.8 C672.6,703.9 649.9,700.7 640.9,688.6 C629.5,673.1 634,652.7 651.7,643.6 z"/><path fill="#000" opacity="1" stroke="none" d=" M554.5,663.4 C559.9,675 565.1,686.2 570.3,697.6 C558.7,699.5 558.7,699.5 551.5,685.2 C543.1,685.2 534.6,685.2 526,685.2 C525.4,686.4 524.8,687.5 524.2,688.7 C519.7,698.6 519.7,698.6 507.9,697.9 C510.8,691.4 513.5,685.2 516.4,679 C521.5,667.7 526.9,656.5 531.8,645 C533.9,640.2 537.6,642.7 540.6,642.1 C543.2,641.6 544.8,642.3 546,645 C548.5,651.1 551.5,657.1 554.5,663.4 M545.3,670.3 C543.2,665.6 541,660.9 538.6,655.6 C535.5,662.4 532.7,668.5 529.7,674.9 C535.8,674.9 541.3,674.9 547.2,674.9 C546.7,673.4 546.2,672.2 545.3,670.3 z"/><path fill="#000" opacity="1" stroke="none" d=" M457,648.9 C462,655.2 466.8,661.2 471.5,667.2 C476.2,673.1 481,679 486.1,685.4 C486.1,671 486.1,657.3 486.1,643.2 C488.4,643.2 490.5,643.2 492.9,643.2 C492.9,661.3 492.9,679.6 492.9,697.8 C489.3,698.8 487.1,697.7 484.8,694.8 C476.1,683.2 467,671.9 458,660.6 C456.7,658.9 455.2,657.4 452.8,654.6 C452.8,669.8 452.8,683.6 452.8,697.9 C450.2,698 448.3,698.1 446.1,698.2 C446.1,679.7 446.1,661.5 446.1,643.4 C451.8,640.7 454,645.3 457,648.9 M453,655.5 C452.8,655.4 452.6,655.3 452.4,655.3 C452.4,655.5 452.5,655.7 453,655.5 z"/><path fill="#000" opacity="1" stroke="none" d=" M259.8,667.6 C261.7,651.9 273.1,641.8 288.2,641.9 C301.7,642 314.5,653 316,665.8 C317.8,681.8 309.4,694.9 294.9,698.4 C280.7,701.9 266.4,694.9 261.7,681.6 C260.2,677.4 260.3,672.6 259.8,667.6 M280.8,649.9 C272.1,653.3 268,660.1 267.2,669.1 C266.2,681.1 274.2,691.1 286,692.7 C296.6,694.1 306.6,686.4 308.6,675.3 C311.5,659.3 298.3,645 280.8,649.9 z"/><path fill="#000" opacity="1" stroke="none" d=" M395.8,660 C395.8,662.6 395.8,664.8 395.8,667.3 C405.6,667.3 415,667.3 424.8,667.3 C424.8,669.5 424.8,671.2 424.8,673.4 C415.2,673.4 405.6,673.4 395.9,673.4 C395.9,679.7 395.9,685.6 395.9,691.9 C407,691.9 417.7,691.9 428.8,691.9 C428.8,694.1 428.8,696 428.8,698 C415.4,698 402.1,698 388.7,698 C388.7,679.6 388.7,661.5 388.7,643 C402,643 415,643 428.4,643 C428.4,644.7 428.4,646.5 428.4,648.8 C417.8,648.8 407.1,648.8 395.8,648.8 C395.8,652.7 395.8,656.1 395.8,660 z"/><path fill="#000" opacity="1" stroke="none" d=" M596.2,671.1 C596.2,676.7 596.2,681.8 596.2,687.4 C605.9,687.4 615.3,687.4 625,687.4 C625,691.2 625,694.4 625,698.1 C618.1,698.1 611.3,698.1 604.5,698.1 C597.9,698.1 591.3,698.1 584.5,698.1 C584.5,679.3 584.5,661.1 584.5,642.5 C588.4,642.5 592,642.5 596.2,642.5 C596.2,651.8 596.2,661.2 596.2,671.1 z"/><path fill="#000" opacity="1" stroke="none" d=" M331.9,695.8 C331.9,678.1 331.9,660.8 331.9,642.4 C341.4,642.9 351,642.5 360.4,644 C369.5,645.4 374.5,653 374.1,662.1 C373.6,670.3 367.9,676.9 359.1,678.1 C352.5,679 345.9,679 338.8,679.4 C338.8,685.4 338.8,691.4 338.8,699 C335.9,697.9 333.9,697.1 331.9,695.8 M338.4,664.4 C338.4,667.2 338.4,670 338.4,673.3 C345,672.9 351.2,673 357.2,672.1 C363.8,671 367,666.9 367,661.3 C367,655.8 363.1,650.8 357,649.9 C351.1,649 344.9,649.1 338.4,648.7 C338.4,654.2 338.4,658.8 338.4,664.4 z"/><path fill="none" opacity="1" stroke="none" d=" M540.2,405.8 C524.7,390 509.5,374.4 494.7,359.4 C506.8,346.5 519.2,333.3 531.9,319.9 C526.7,314.6 521,308.7 514.3,301.9 C501.6,315.8 489.4,329.1 477.5,342.1 C468.8,333.8 461.7,327 454.3,320 C474.6,300.2 494.6,280.6 514.8,260.8 C567.7,313.2 620.7,365.5 673.2,417.5 C653.4,437.7 633.5,458.1 613.8,478.1 C606.9,471.2 600,464.3 592.9,457.3 C606.4,444.8 620.3,431.7 633.8,419.2 C627.8,412.6 621.9,406.1 615.9,399.5 C601.7,413.3 588.1,426.5 575,439.2 C563.4,428.1 552,417.1 540.2,405.8 z"/><path fill="none" opacity="1" stroke="none" d=" M575,515 C555.6,534.2 536.3,553.1 516.8,572.4 C496.5,552.7 476.3,533.2 456.5,514.1 C469.4,500.8 482.1,487.6 494.9,474.3 C475.1,454.9 455,435.2 434.6,415.2 C448,402.3 461.3,389.6 474.5,377 C501.6,403.8 528.5,430.5 555.6,457.4 C540,472.3 524.7,487 509.4,501.6 C515.2,507.5 520.9,513.3 526.9,519.3 C542.3,504.7 557.6,490.1 573.2,475.3 C580.1,482.5 586.7,489.5 593.4,496.4 C587.6,502.3 581.4,508.6 575,515 z"/><path fill="none" opacity="1" stroke="none" d=" M412.9,474.1 C393.4,455.4 374.3,436.9 354.7,418 C381.8,391.4 409,364.8 435.6,338.7 C442.7,345.3 449.8,351.8 456.9,358.4 C436.7,377.7 416.9,396.5 397.1,415.5 C416.3,435.1 435.5,454.7 453.9,473.5 C447.8,480.3 441.3,487.6 434.6,495.1 C427,487.7 420.1,481 412.9,474.1 z"/><path fill="none" opacity="1" stroke="none" d=" M745.2,654.6 C752.7,659.8 754.8,666.6 753,674.8 C751.2,682.8 746.2,687.5 737.3,688.6 C730,689.5 723.9,686.5 719.7,680.3 C715.4,673.9 716.2,663.6 721.3,657.5 C726.8,650.9 735.4,649.8 745.2,654.6 z"/><path fill="none" opacity="1" stroke="none" d=" M545.5,670.7 C546.2,672.2 546.7,673.4 547.2,674.9 C541.3,674.9 535.8,674.9 529.7,674.9 C532.7,668.5 535.5,662.4 538.6,655.6 C541,660.9 543.2,665.6 545.5,670.7 z"/><path fill="none" opacity="1" stroke="none" d=" M452.8,655.7 C452.5,655.7 452.4,655.5 452.4,655.3 C452.6,655.3 452.8,655.4 452.8,655.7 z"/><path fill="none" opacity="1" stroke="none" d=" M281.2,649.7 C298.3,645 311.5,659.3 308.6,675.3 C306.6,686.4 296.6,694.1 286,692.7 C274.2,691.1 266.2,681.1 267.2,669.1 C268,660.1 272.1,653.3 281.2,649.7 z"/><path fill="none" opacity="1" stroke="none" d=" M338.4,663.9 C338.4,658.8 338.4,654.2 338.4,648.7 C344.9,649.1 351.1,649 357,649.9 C363.1,650.8 367,655.8 367,661.3 C367,666.9 363.8,671 357.2,672.1 C351.2,673 345,672.9 338.4,673.3 C338.4,670 338.4,667.2 338.4,663.9 z"/></svg>